<svg xmlns="http://www.w3.org/2000/svg" width="1200" height="700" viewBox="0 0 1200 700">
  <rect x="0" y="0" width="1200" height="700" fill="#0b0f14"/>

  <rect x="30" y="30" width="1140" height="640" rx="14" fill="#111827" stroke="#243041" stroke-width="2"/>
  <rect x="30" y="30" width="1140" height="56" rx="14" fill="#0f172a" stroke="#243041" stroke-width="2"/>
  <text x="54" y="66" fill="#e5e7eb" font-size="18" font-family="ui-sans-serif, system-ui, -apple-system, Segoe UI, Roboto, Helvetica, Arial">ASCII Converter (Streamlit UI)</text>

  <rect x="54" y="110" width="320" height="536" rx="12" fill="#0f172a" stroke="#243041" stroke-width="2"/>
  <text x="74" y="144" fill="#e5e7eb" font-size="16" font-family="ui-sans-serif, system-ui, -apple-system, Segoe UI, Roboto, Helvetica, Arial">Settings</text>

  <text x="74" y="182" fill="#9ca3af" font-size="13" font-family="ui-monospace, SFMono-Regular, Menlo, Monaco, Consolas, Liberation Mono, monospace">Scale (0.1 - 1.0)</text>
  <rect x="74" y="190" width="276" height="10" rx="5" fill="#243041"/>
  <rect x="74" y="190" width="150" height="10" rx="5" fill="#60a5fa"/>

  <text x="74" y="234" fill="#9ca3af" font-size="13" font-family="ui-monospace, SFMono-Regular, Menlo, Monaco, Consolas, Liberation Mono, monospace">Background brightness (0 - 255)</text>
  <rect x="74" y="242" width="276" height="10" rx="5" fill="#243041"/>
  <rect x="74" y="242" width="70" height="10" rx="5" fill="#f59e0b"/>

  <text x="74" y="286" fill="#9ca3af" font-size="13" font-family="ui-monospace, SFMono-Regular, Menlo, Monaco, Consolas, Liberation Mono, monospace">Output format</text>
  <rect x="74" y="294" width="276" height="34" rx="8" fill="#111827" stroke="#243041" stroke-width="2"/>
  <text x="88" y="317" fill="#e5e7eb" font-size="14" font-family="ui-sans-serif, system-ui, -apple-system, Segoe UI, Roboto, Helvetica, Arial">image / text / html</text>

  <text x="74" y="360" fill="#9ca3af" font-size="13" font-family="ui-monospace, SFMono-Regular, Menlo, Monaco, Consolas, Liberation Mono, monospace">Dynamic character set</text>
  <rect x="74" y="368" width="22" height="22" rx="6" fill="#111827" stroke="#243041" stroke-width="2"/>

  <text x="74" y="430" fill="#9ca3af" font-size="13" font-family="ui-monospace, SFMono-Regular, Menlo, Monaco, Consolas, Liberation Mono, monospace">Output directory</text>
  <rect x="74" y="438" width="276" height="34" rx="8" fill="#111827" stroke="#243041" stroke-width="2"/>
  <text x="88" y="461" fill="#e5e7eb" font-size="14" font-family="ui-monospace, SFMono-Regular, Menlo, Monaco, Consolas, Liberation Mono, monospace">./assets/output</text>

  <text x="74" y="510" fill="#9ca3af" font-size="13" font-family="ui-monospace, SFMono-Regular, Menlo, Monaco, Consolas, Liberation Mono, monospace">Font (.ttf) (optional)</text>
  <rect x="74" y="518" width="276" height="34" rx="8" fill="#111827" stroke="#243041" stroke-width="2"/>
  <text x="88" y="541" fill="#6b7280" font-size="14" font-family="ui-monospace, SFMono-Regular, Menlo, Monaco, Consolas, Liberation Mono, monospace">/path/to/font.ttf</text>

  <rect x="74" y="586" width="276" height="40" rx="10" fill="#1f2937" stroke="#243041" stroke-width="2"/>
  <text x="110" y="612" fill="#e5e7eb" font-size="14" font-family="ui-sans-serif, system-ui, -apple-system, Segoe UI, Roboto, Helvetica, Arial">Save as defaults</text>

  <rect x="400" y="110" width="770" height="60" rx="12" fill="#0f172a" stroke="#243041" stroke-width="2"/>
  <text x="420" y="146" fill="#e5e7eb" font-size="16" font-family="ui-sans-serif, system-ui, -apple-system, Segoe UI, Roboto, Helvetica, Arial">Tabs: Upload | Live (Webcam + Audio)</text>

  <rect x="400" y="190" width="370" height="456" rx="12" fill="#0f172a" stroke="#243041" stroke-width="2"/>
  <text x="420" y="224" fill="#e5e7eb" font-size="16" font-family="ui-sans-serif, system-ui, -apple-system, Segoe UI, Roboto, Helvetica, Arial">Preview</text>
  <rect x="420" y="240" width="330" height="240" rx="10" fill="#111827" stroke="#243041" stroke-width="2"/>
  <text x="440" y="370" fill="#6b7280" font-size="14" font-family="ui-monospace, SFMono-Regular, Menlo, Monaco, Consolas, Liberation Mono, monospace">(uploaded image)</text>

  <rect x="800" y="190" width="370" height="456" rx="12" fill="#0f172a" stroke="#243041" stroke-width="2"/>
  <text x="820" y="224" fill="#e5e7eb" font-size="16" font-family="ui-sans-serif, system-ui, -apple-system, Segoe UI, Roboto, Helvetica, Arial">ASCII preview</text>
  <rect x="820" y="240" width="330" height="380" rx="10" fill="#0b0f14" stroke="#243041" stroke-width="2"/>
  <text x="840" y="270" fill="#9ca3af" font-size="13" font-family="ui-monospace, SFMono-Regular, Menlo, Monaco, Consolas, Liberation Mono, monospace">...ascii preview updates when sliders move...</text>
  <text x="840" y="292" fill="#6b7280" font-size="13" font-family="ui-monospace, SFMono-Regular, Menlo, Monaco, Consolas, Liberation Mono, monospace">(preview is rendered as mono ANSI and stripped)</text>
</svg>
